<svg width="512" height="407" viewBox="0 0 512 407" fill="none" xmlns="http://www.w3.org/2000/svg">
<path d="M512 134.833C512 85.666 472 45.687 422.833 45.687C420.437 45.687 418.062 45.791 415.687 45.978C392.562 17.124 357.708 0 319.999 0C282.311 0 247.437 17.124 224.311 45.979C221.936 45.791 219.54 45.688 217.123 45.688C168 45.687 128 85.666 128 134.833C128 139.979 128.688 144.937 129.5 149.875C128.958 150.583 128.312 151.229 127.792 151.958C122.563 151.208 117.313 150.833 112 150.833C50.25 150.833 0 201.082 0 262.832C0 324.583 50.25 374.832 112 374.832C125.688 374.832 139.084 372.332 151.709 367.499C180.666 392.749 217.5 406.832 256 406.832C294.542 406.832 331.333 392.749 360.291 367.499C372.916 372.332 386.312 374.832 400 374.832C461.75 374.832 512 324.583 512 262.832C512 237.144 502.958 213.749 488.334 194.833C502.916 178.937 512 158 512 134.833ZM400 342.832C382.875 342.832 367.084 337.333 354.062 328.166C330.583 356.457 295.624 374.832 256 374.832C216.375 374.832 181.416 356.457 157.938 328.166C144.938 337.333 129.126 342.832 112 342.832C67.812 342.832 32 307.02 32 262.832C32 218.644 67.812 182.833 112 182.833C122.812 182.833 133.062 185.021 142.438 188.895C143 187.833 143.688 186.895 144.25 185.874C149.875 175.603 156.812 166.186 164.916 157.832C188 133.916 220.083 118.832 256 118.832C305.709 118.832 348.334 147.498 369.541 188.894C375.187 186.582 381.209 185.081 387.416 184.082L400 182.832C412.334 182.832 423.875 185.874 434.312 190.832C445.624 196.248 455.333 204.206 462.958 214.02C473.458 227.541 480 244.374 480 262.832C480 307.02 444.188 342.832 400 342.832ZM465.562 172.457C447.083 158.999 424.562 150.833 400 150.833C394.688 150.833 389.438 151.208 384.208 151.958C354.334 111.25 307.187 86.833 256 86.833C221.875 86.833 189.688 97.875 163.062 117.167C170.541 94.313 191.791 77.688 217.124 77.688C224.874 77.688 232.186 79.25 238.874 82.02C254.062 52.458 284.499 32 319.999 32C355.499 32 385.957 52.457 401.083 82.02C407.812 79.25 415.166 77.688 422.832 77.688C454.416 77.688 479.999 103.271 479.999 134.834C480 149.312 474.438 162.374 465.562 172.457Z" fill="white"/>
</svg>
